<?xml version="1.0" standalone="no"?>
<!DOCTYPE svg PUBLIC "-//W3C//DTD SVG 20010904//EN"
 "http://www.w3.org/TR/2001/REC-SVG-20010904/DTD/svg10.dtd">
<svg version="1.0" xmlns="http://www.w3.org/2000/svg"
 width="1024.000000pt" height="1024.000000pt" viewBox="0 0 1024.000000 1024.000000"
 preserveAspectRatio="xMidYMid meet">

<g transform="translate(0.000000,1024.000000) scale(0.100000,-0.100000)"
fill="#000000" stroke="none">
<path d="M3535 7224 c-11 -3 -39 -12 -63 -20 -24 -8 -48 -12 -53 -9 -5 4 -9 1
-9 -4 0 -6 -6 -11 -13 -11 -15 0 -71 -58 -80 -82 -3 -10 -2 -20 3 -23 6 -4 10
-15 10 -26 0 -30 12 -23 65 42 75 91 160 127 266 110 61 -10 70 -8 40 9 -24
12 -136 22 -166 14z"/>
<path d="M3730 7186 c0 -2 9 -6 20 -9 11 -3 18 -1 14 4 -5 9 -34 13 -34 5z"/>
<path d="M6105 7160 c-4 -6 -12 -10 -18 -9 -19 3 -71 -13 -79 -25 -5 -7 -8 -6
-8 3 0 10 -8 7 -25 -9 -33 -31 -32 -48 3 -44 26 4 26 3 2 -4 -16 -5 -26 -17
-28 -32 l-4 -25 27 25 c14 13 32 36 39 50 7 14 18 24 24 23 7 -2 12 1 12 5 0
11 65 33 124 42 l51 8 -57 1 c-31 0 -60 -4 -63 -9z"/>
<path d="M6432 6860 c0 -19 2 -27 5 -17 2 9 2 25 0 35 -3 9 -5 1 -5 -18z"/>
<path d="M1372 6860 c-18 -11 -30 -25 -27 -30 8 -13 6 -14 38 20 34 35 33 36
-11 10z"/>
<path d="M3912 6860 c0 -14 2 -19 5 -12 2 6 2 18 0 25 -3 6 -5 1 -5 -13z"/>
<path d="M8632 6848 c-7 -7 -12 -22 -12 -35 0 -21 2 -22 20 -11 26 16 32 34
16 47 -9 7 -16 7 -24 -1z"/>
<path d="M1365 6800 c-27 -30 -12 -34 15 -5 13 14 19 25 13 25 -5 0 -18 -9
-28 -20z"/>
<path d="M6022 6726 c2 -47 7 -61 24 -73 21 -14 22 -13 25 29 3 36 -1 48 -24
73 l-28 30 3 -59z"/>
<path d="M3418 6703 c3 -42 10 -64 25 -80 11 -13 24 -23 28 -23 11 0 17 72 8
97 -7 20 -47 63 -58 63 -3 0 -4 -26 -3 -57z"/>
<path d="M5950 6677 c0 -16 8 -28 25 -35 14 -6 25 -9 25 -6 0 3 -11 19 -25 36
-25 29 -25 29 -25 5z"/>
<path d="M3338 6662 c7 -5 10 -16 7 -24 -4 -10 4 -23 23 -37 49 -34 56 -24 15
24 -20 25 -42 45 -48 45 -5 0 -4 -4 3 -8z"/>
<path d="M1762 6635 c0 -16 2 -22 5 -12 2 9 2 23 0 30 -3 6 -5 -1 -5 -18z"/>
<path d="M1410 6510 c1 -36 6 -49 24 -62 l24 -17 -5 42 c-3 23 -14 51 -24 62
-19 19 -19 19 -19 -25z"/>
<path d="M8620 6522 c0 -10 33 -42 42 -42 10 0 4 34 -7 42 -14 10 -35 10 -35
0z"/>
<path d="M1340 6488 c0 -18 36 -66 43 -58 3 3 -6 21 -19 40 -14 20 -24 28 -24
18z"/>
<path d="M6012 6357 c-14 -40 -16 -65 -3 -51 10 9 26 84 19 84 -2 0 -9 -15
-16 -33z"/>
<path d="M5990 6266 c-12 -33 -12 -36 -1 -36 9 0 22 52 15 59 -2 2 -8 -8 -14
-23z"/>
<path d="M2875 6030 c-9 -82 -14 -157 -10 -167 11 -25 32 85 41 215 11 157
-10 125 -31 -48z"/>
<path d="M3005 6159 c4 -12 18 -37 31 -56 13 -20 24 -40 24 -44 0 -5 22 -40
49 -77 27 -38 55 -81 63 -97 10 -18 18 -24 22 -16 7 10 -115 226 -161 284 -25
32 -37 35 -28 6z"/>
<path d="M3202 5848 c2 -6 10 -14 16 -16 7 -2 10 2 6 12 -7 18 -28 22 -22 4z"/>
<path d="M6712 5459 c-12 -11 -22 -23 -22 -28 0 -4 -12 -21 -28 -37 -44 -46
-119 -157 -119 -176 0 -14 4 -15 21 -5 15 9 139 12 466 12 l445 0 33 34 c30
30 32 35 17 50 -8 10 -15 21 -15 25 0 5 -11 22 -25 40 -14 17 -29 36 -33 41
-5 6 -14 19 -20 30 -8 14 -12 16 -12 5 0 -13 -2 -13 -9 -1 -8 13 -61 15 -333
14 -178 -1 -328 3 -334 8 -7 5 -19 1 -32 -12z m18 -9 c0 -5 -5 -10 -11 -10 -5
0 -7 5 -4 10 3 6 8 10 11 10 2 0 4 -4 4 -10z"/>
<path d="M2858 5464 c-29 -6 -35 -17 -69 -132 -11 -40 -18 -79 -15 -87 3 -8 1
-15 -4 -15 -6 0 -10 -8 -10 -17 0 -13 3 -14 8 -6 6 10 82 13 300 15 162 2 292
7 291 12 0 5 3 12 8 15 13 9 45 121 44 154 -1 50 -5 66 -15 59 -6 -3 -25 -5
-43 -3 -19 1 -33 -2 -33 -8 0 -16 -262 -15 -277 0 -12 12 -138 21 -185 13z"/>
<path d="M4660 5459 c0 -6 -7 -8 -16 -5 -28 11 -84 -4 -85 -23 0 -11 -2 -12
-6 -3 -4 11 -107 -132 -143 -198 -7 -13 47 -15 461 -12 258 1 469 4 469 7 0 8
-43 80 -60 100 -10 11 -32 45 -50 76 l-33 57 -186 4 c-122 2 -189 0 -194 -7
-6 -7 -10 -6 -14 3 -6 16 -143 17 -143 1z"/>
<path d="M4120 5237 c0 -17 125 -206 166 -252 l45 -50 -43 60 c-23 33 -47 63
-51 66 -5 3 -8 9 -8 13 1 6 -85 143 -100 161 -5 5 -9 6 -9 2z"/>
<path d="M2562 5135 c12 -14 23 -25 25 -25 2 0 -4 11 -13 25 -9 14 -20 25 -25
25 -5 0 1 -11 13 -25z"/>
<path d="M2610 5086 c34 -44 146 -144 203 -180 72 -46 170 -86 206 -85 22 1
20 2 -9 9 -58 14 -128 48 -199 95 -62 42 -83 59 -181 148 -19 18 -28 23 -20
13z"/>
<path d="M4145 5040 c26 -51 109 -172 134 -194 26 -23 28 -17 3 12 -27 31 -47
59 -93 132 -48 76 -69 100 -44 50z"/>
<path d="M2530 5015 c13 -14 26 -25 28 -25 3 0 -5 11 -18 25 -13 14 -26 25
-28 25 -3 0 5 -11 18 -25z"/>
<path d="M2570 4980 c0 -14 112 -120 128 -120 6 0 12 -4 12 -9 0 -21 205 -132
241 -130 14 0 4 5 -81 42 -75 32 -184 110 -262 189 -21 21 -38 34 -38 28z"/>
<path d="M4300 4816 c0 -2 8 -10 18 -17 15 -13 16 -12 3 4 -13 16 -21 21 -21
13z"/>
<path d="M6545 4725 c56 -51 156 -96 224 -100 l56 -4 -51 8 c-57 10 -134 41
-178 74 -17 13 -44 31 -61 41 -25 15 -23 11 10 -19z"/>
<path d="M2531 4734 c0 -11 3 -14 6 -6 3 7 2 16 -1 19 -3 4 -6 -2 -5 -13z"/>
<path d="M2988 4713 c7 -3 16 -2 19 1 4 3 -2 6 -13 5 -11 0 -14 -3 -6 -6z"/>
<path d="M2540 4701 c0 -6 4 -13 10 -16 6 -3 7 1 4 9 -7 18 -14 21 -14 7z"/>
<path d="M6515 4674 c66 -64 195 -125 259 -123 29 1 28 2 -9 9 -69 14 -149 52
-245 117 -25 17 -25 17 -5 -3z"/>
<path d="M2581 4613 c5 -16 12 -34 15 -42 2 -8 7 -12 9 -9 6 5 -22 78 -30 78
-2 0 0 -12 6 -27z"/>
<path d="M2610 4540 c0 -6 11 -32 24 -58 70 -139 197 -428 199 -454 1 -10 6
-18 11 -18 5 0 1 -7 -10 -15 -10 -8 -31 -15 -46 -15 -16 0 -28 -4 -28 -10 0
-13 -23 -13 -55 2 -14 6 -25 19 -25 30 0 11 -7 18 -19 18 -24 0 -35 15 -50 68
-6 23 -16 42 -21 42 -13 0 -13 -13 2 -47 12 -30 179 -516 204 -593 43 -138 69
-203 72 -187 2 10 -5 44 -16 75 -35 101 -50 217 -22 173 5 -10 28 -14 75 -13
45 1 75 -4 89 -13 11 -8 32 -15 46 -15 l25 0 -24 13 c-22 12 -61 92 -61 128 0
16 43 30 137 46 20 3 30 9 26 16 -4 7 0 8 11 4 10 -4 23 -4 29 0 7 4 23 9 37
11 14 2 29 7 34 13 6 5 24 9 41 9 17 0 35 4 40 8 6 5 37 14 70 21 33 7 83 18
110 26 28 8 100 23 160 35 142 27 226 49 244 63 12 10 13 9 6 -2 -7 -12 0 -13
36 -7 24 4 52 7 62 7 9 0 15 4 13 8 -6 9 102 23 174 22 38 0 41 2 20 9 -16 6
-1 7 45 4 l70 -5 -23 19 c-14 13 -18 22 -10 24 8 3 6 7 -5 11 -11 4 -17 1 -17
-7 0 -10 -17 -15 -57 -18 -72 -5 -227 10 -231 23 -5 14 -32 11 -32 -3 0 -10
-2 -10 -9 0 -12 19 -15 19 -35 0 -18 -18 -86 -25 -86 -9 0 15 -33 22 -42 9 -6
-11 -10 -10 -17 1 -7 11 -9 11 -14 0 -4 -11 -6 -11 -6 -1 -1 10 -5 10 -23 0
-29 -16 -190 -11 -200 5 -6 9 -8 9 -8 0 0 -7 -8 -13 -17 -13 -16 0 -16 2 -3
10 10 7 -3 9 -44 5 -33 -3 -62 -9 -65 -14 -3 -5 -54 -8 -113 -6 -59 1 -105 -2
-102 -6 7 -11 -17 -11 -34 0 -13 7 -150 -23 -215 -48 -35 -14 -37 -14 -37 0 0
11 -21 63 -71 176 -11 24 -19 45 -19 47 0 5 -93 203 -157 334 -35 70 -43 83
-43 62z"/>
<path d="M2546 4217 c3 -10 9 -15 12 -12 3 3 0 11 -7 18 -10 9 -11 8 -5 -6z"/>
<path d="M5088 4073 c7 -3 16 -2 19 1 4 3 -2 6 -13 5 -11 0 -14 -3 -6 -6z"/>
<path d="M5128 4073 c6 -2 18 -2 25 0 6 3 1 5 -13 5 -14 0 -19 -2 -12 -5z"/>
<path d="M5543 4033 c9 -2 25 -2 35 0 9 3 1 5 -18 5 -19 0 -27 -2 -17 -5z"/>
<path d="M4650 3999 c0 -5 10 -9 23 -9 12 -1 60 -4 107 -6 47 -3 82 -3 79 0
-5 6 -33 9 -166 20 -24 2 -43 -1 -43 -5z"/>
<path d="M4408 3983 c-5 -19 -1 -23 34 -28 22 -4 42 -4 45 -1 4 3 -5 6 -18 6
-28 0 -44 10 -51 30 -3 10 -6 8 -10 -7z"/>
<path d="M4521 3983 c-17 -19 -13 -20 29 -12 21 4 26 7 13 8 -12 0 -23 5 -25
10 -1 5 -9 2 -17 -6z"/>
<path d="M4563 3993 c9 -2 23 -2 30 0 6 3 -1 5 -18 5 -16 0 -22 -2 -12 -5z"/>
<path d="M4925 3989 c-33 -3 33 -6 148 -7 114 -1 207 1 207 6 0 8 -268 10
-355 1z"/>
<path d="M5435 3991 c-30 -5 -36 -8 -22 -14 27 -11 107 -9 107 3 0 6 -4 10 -9
10 -5 0 -15 2 -23 4 -7 1 -31 0 -53 -3z"/>
<path d="M5828 3991 c21 -13 -9 -21 -75 -21 -31 0 -54 -2 -52 -4 8 -9 126 -20
216 -20 50 -1 86 -4 80 -8 -5 -3 19 -8 54 -11 35 -3 82 -8 104 -11 22 -3 51
-8 65 -10 14 -1 33 -6 43 -10 9 -5 23 -6 31 -3 8 3 29 2 48 -3 59 -15 135 -22
116 -10 -17 11 -91 27 -273 60 -60 11 -122 25 -136 31 -16 6 -46 8 -72 4 -32
-5 -53 -2 -75 9 -32 17 -99 23 -74 7z"/>
<path d="M5313 3983 c9 -2 25 -2 35 0 9 3 1 5 -18 5 -19 0 -27 -2 -17 -5z"/>
<path d="M6505 3860 c19 -8 83 -14 74 -6 -2 2 -24 6 -49 9 -30 4 -38 3 -25 -3z"/>
<path d="M4725 3764 c-148 -7 -503 -35 -565 -44 -36 -5 -117 -16 -180 -24 -63
-8 -131 -18 -150 -21 -171 -29 -209 -36 -235 -40 -42 -8 -237 -55 -255 -62 -8
-3 -23 -5 -32 -4 -10 1 -18 -2 -18 -7 0 -5 14 -9 32 -10 17 0 35 -7 40 -14 7
-10 10 -10 18 4 8 13 16 15 43 7 19 -5 220 -7 490 -4 252 3 456 2 454 -2 -3
-5 18 -9 47 -9 47 -2 48 -1 16 7 -23 5 0 6 68 3 56 -2 102 0 102 5 0 4 18 5
40 1 22 -4 37 -3 34 1 -3 5 55 7 128 4 73 -3 296 -7 496 -9 200 -2 366 -7 369
-10 4 -3 12 -1 20 6 9 7 70 10 196 8 614 -10 679 -9 694 6 19 19 33 18 33 -2
0 -12 6 -15 23 -10 12 3 29 6 37 6 25 0 -38 29 -78 35 -20 4 -74 15 -119 26
-45 10 -106 22 -135 25 -80 10 -80 10 -123 22 -22 6 -62 14 -90 17 -27 2 -110
14 -183 25 -74 10 -137 19 -140 18 -4 -1 -23 1 -42 5 -124 21 -848 50 -1035
41z m743 -211 c-10 -2 -26 -2 -35 0 -10 3 -2 5 17 5 19 0 27 -2 18 -5z"/>
<path d="M6738 3533 c6 -2 18 -2 25 0 6 3 1 5 -13 5 -14 0 -19 -2 -12 -5z"/>
<path d="M4075 3520 c4 -6 11 -8 16 -5 14 9 11 15 -7 15 -8 0 -12 -5 -9 -10z"/>
<path d="M4203 3523 c15 -2 37 -2 50 0 12 2 0 4 -28 4 -27 0 -38 -2 -22 -4z"/>
<path d="M5728 3523 c6 -2 18 -2 25 0 6 3 1 5 -13 5 -14 0 -19 -2 -12 -5z"/>
<path d="M5776 3521 c-3 -4 6 -6 19 -3 14 2 25 6 25 8 0 8 -39 4 -44 -5z"/>
<path d="M6018 3503 c7 -3 16 -2 19 1 4 3 -2 6 -13 5 -11 0 -14 -3 -6 -6z"/>
<path d="M6128 3483 c7 -3 16 -2 19 1 4 3 -2 6 -13 5 -11 0 -14 -3 -6 -6z"/>
<path d="M7265 3400 c3 -5 13 -10 21 -10 22 0 17 -17 -8 -23 -12 -4 -20 -9
-16 -12 7 -7 88 17 88 26 0 5 -68 29 -84 29 -4 0 -4 -4 -1 -10z"/>
<path d="M3038 3283 c6 -2 18 -2 25 0 6 3 1 5 -13 5 -14 0 -19 -2 -12 -5z"/>
<path d="M2870 3275 c0 -29 18 -38 52 -27 l33 11 -30 -2 c-17 -1 -35 5 -42 13
-7 8 -12 11 -13 5z"/>
</g>
</svg>
